<svg width="40" height="35" viewBox="0 0 40 35" fill="none" xmlns="http://www.w3.org/2000/svg">
<g clip-path="url(#clip0_157_7769)">
<path fill-rule="evenodd" clip-rule="evenodd" d="M8.13033 0.0748653C9.04887 0.00311843 9.97362 0.00311842 10.8922 0.0467904C12.4469 0.131015 14.0171 0.37745 15.4569 0.998216C16.4872 1.43182 17.4057 2.15864 18.014 3.10695C18.3863 3.69652 18.6377 4.36408 18.768 5.05036C18.8922 5.67736 18.9108 6.31996 18.9046 6.95633C18.9066 9.66191 18.9066 12.3675 18.9046 15.0731C19.5159 15.0013 20.1241 14.9296 20.7323 14.8547C20.7323 12.2531 20.7323 9.65151 20.7323 7.04991C20.7106 6.0361 20.841 5.00668 21.2351 4.06462C21.4616 3.53119 21.7688 3.02585 22.1598 2.59224C22.5508 2.14617 23.0287 1.78743 23.5314 1.47861C24.5151 0.857842 25.6416 0.508466 26.7742 0.286987C27.5066 0.168448 28.242 0.0686264 28.9837 0.043671C29.8247 -0.00312044 30.6718 0.0124767 31.5128 0.087343C33.1699 0.243314 34.8177 0.714348 36.2421 1.59403C36.7199 1.89349 37.1978 2.20544 37.595 2.60784C37.9364 2.94786 38.2374 3.32843 38.4701 3.75267C38.8022 4.35472 39.0039 5.02228 39.0877 5.70232C39.1683 6.36676 39.1342 7.03743 39.1404 7.70499C39.1404 9.46227 39.1404 11.2195 39.1404 12.9768C39.4259 12.9488 39.7145 12.9332 40 12.9082V14.8641C38.4577 14.9795 36.9154 15.0887 35.3763 15.2197C33.8247 15.3507 32.2731 15.4724 30.7246 15.619C28.8906 15.7843 27.0597 15.9528 25.232 16.143C21.5516 16.5174 17.8774 16.9291 14.2064 17.4002C12.7913 17.5967 11.3701 17.7683 9.955 17.9804C8.60822 18.1707 7.26455 18.361 5.92087 18.57C3.94414 18.8725 1.97052 19.1814 0 19.5276V18.18C0.173778 18.1395 0.350659 18.1083 0.524438 18.0677C0.527541 14.3244 0.524438 10.578 0.527541 6.83155C0.521334 6.10784 0.602017 5.3779 0.800621 4.67914C1.05818 3.75267 1.55469 2.89171 2.24981 2.22727C3.11559 1.42558 4.18929 0.873439 5.31885 0.549019C6.23429 0.280748 7.18076 0.140373 8.13033 0.0748653ZM8.782 5.42781C8.47479 5.72415 8.38479 6.17023 8.3879 6.582C8.3879 9.04219 8.3879 11.5013 8.3879 13.9594C9.28368 13.9594 10.1784 13.9594 11.0721 13.9594C11.0721 11.5419 11.0721 9.12433 11.0721 6.70989C11.0721 6.46346 11.0659 6.2139 11.0101 5.97371C10.9542 5.71167 10.8208 5.47148 10.6191 5.29679C10.0946 4.85695 9.23507 4.90998 8.782 5.42781ZM29.3778 5.1377C29.0178 5.31551 28.7417 5.65864 28.6548 6.05169C28.5772 6.3574 28.5989 6.67558 28.5958 6.98752C28.5958 9.3115 28.5927 11.6355 28.5958 13.9626C29.4988 13.8815 30.4019 13.7785 31.308 13.6881C31.308 11.3391 31.308 8.9902 31.308 6.64438C31.3049 6.24822 31.2521 5.82709 31.0132 5.50267C30.6563 5.00044 29.9178 4.86631 29.3778 5.1377ZM36.3072 15.9933C37.2568 15.9278 38.2064 15.8467 39.1559 15.7843C39.1559 19.2573 39.1559 22.7302 39.1559 26.2032C39.159 26.8739 39.1032 27.5477 38.9356 28.1996C38.7463 28.9234 38.4298 29.6221 37.9643 30.2117C37.7347 30.5143 37.4616 30.7857 37.1761 31.0383C37.8743 32.3516 38.5756 33.6618 39.2739 34.9782C37.1078 34.975 34.9418 34.9782 32.7789 34.975C32.4096 34.2576 32.0279 33.5463 31.6524 32.832C30.7649 32.8663 29.8712 32.8819 28.9837 32.832C28.2824 32.8039 27.5842 32.7384 26.8891 32.6199C26.2064 32.5138 25.5299 32.3422 24.8782 32.1052C24.1303 31.84 23.4104 31.4688 22.796 30.9572C22.3491 30.5954 21.9674 30.1524 21.6571 29.6658C21.2444 29.0045 20.9806 28.2527 20.8534 27.4822C20.7013 26.6586 20.7386 25.8195 20.7323 24.9866C20.7323 22.4516 20.7323 19.9176 20.7323 17.3846C23.0784 17.107 25.4275 16.9104 27.7766 16.6702C28.0434 16.6453 28.3114 16.6203 28.5803 16.5954C28.5803 19.7044 28.5803 22.8134 28.5803 25.9225C28.5803 26.3061 28.5679 26.6992 28.6796 27.0704C28.7355 27.2545 28.8068 27.4447 28.9403 27.5882C29.1792 27.8284 29.5237 27.9189 29.8526 27.9314C30.1722 27.9407 30.5198 27.9002 30.7836 27.7005C30.9449 27.5851 31.0473 27.4073 31.1249 27.2326C31.2645 26.9207 31.308 26.5744 31.308 26.2344C31.308 22.9465 31.308 19.6586 31.308 16.3708C32.9744 16.246 34.6408 16.1087 36.3072 15.9933ZM4.40962 19.4278C5.73158 19.2157 7.05353 19.0067 8.37238 18.7914C8.37548 21.2839 8.37238 23.7732 8.37238 26.2656C8.37548 26.6399 8.41583 27.0267 8.58029 27.3699C8.70753 27.6662 9.01474 27.8315 9.31265 27.9064C9.80605 28.0062 10.3926 27.9501 10.7463 27.5508C11.0194 27.1484 11.0784 26.6462 11.0721 26.172C11.0721 24.0591 11.0721 21.9462 11.0721 19.8333C13.683 19.8333 16.2948 19.8333 18.9077 19.8333C18.9046 22.0606 18.9108 24.2848 18.9015 26.512C18.8891 27.4385 18.7184 28.3712 18.315 29.2072C17.9085 30.0526 17.2692 30.7825 16.4965 31.3066C15.9814 31.6716 15.4104 31.943 14.8177 32.1488C13.2009 32.7166 11.4756 32.8414 9.77502 32.8632C8.51823 32.8632 7.25524 32.779 6.02017 32.5294C5.30954 32.3797 4.61133 32.1676 3.95345 31.865C3.10628 31.4657 2.33049 30.8917 1.7595 30.1462C1.02095 29.201 0.651668 28.0125 0.558573 26.8271C0.502715 26.1127 0.533747 25.3922 0.527541 24.6747C0.525472 23.1358 0.525472 21.5968 0.527541 20.0579C1.28161 19.9332 2.03879 19.8177 2.79286 19.6836C3.33282 19.6087 3.86967 19.5027 4.40962 19.4278Z" fill="white"/>
</g>
<defs>
<clipPath id="clip0_157_7769">
<rect width="40" height="35" fill="white"/>
</clipPath>
</defs>
</svg>
